<svg xmlns="http://www.w3.org/2000/svg" width="573.84" height="379.309" viewBox="0 0 573.84 379.309"><defs><style>.a{fill:#3f3d56;}.b{fill:#e6e8ec;}.c{fill:#219a53;}.d,.e{fill:#fff;}.d{opacity:0.3;}.f{fill:#ffb8b8;}.g{fill:#2f2e41;}.h{fill:#f2f2f2;}</style></defs><g transform="translate(0 0)"><path class="a" d="M639.559,681.072q-23.8-3.726-45.766-6.338l5.639-11.278c-1.957-.652-10.439,5.872-10.439,5.872l7.177-32.623c-9.787,1.3-14.354,34.58-14.354,34.58l-11.092-11.092,5.46,12.558A1011.215,1011.215,0,0,0,460.2,666.91l4.827-9.653c-1.957-.652-10.439,5.872-10.439,5.872l7.177-32.623c-9.787,1.3-14.354,34.58-14.354,34.58L436.318,654l5.783,13.3a651.036,651.036,0,0,0-66.566,5.361c4.816-15,21.635-29.427,21.635-29.427-12.932,4.023-19.66,10.578-23.142,16.654a262,262,0,0,1,14.008-90.708s-26.1,58.721-22.184,97.869l.5,6.954c-22.705,3.542-34.1,7.074-34.1,7.074Z" transform="translate(-220.027 -301.763)"/><path class="a" d="M890.752,608.47a7.83,7.83,0,1,1,7.829-7.83,7.829,7.829,0,0,1-7.829,7.83Zm0-14.354a6.525,6.525,0,1,0,6.525,6.525A6.525,6.525,0,0,0,890.752,594.116Z" transform="translate(-411.406 -309.978)"/><path class="a" d="M983.889,732.24h-12.88V719.36h12.88ZM972,731.25h10.9v-10.9H972Z" transform="translate(-442.02 -353.958)"/><path class="a" d="M317.714,730.484l-8.785-9.419,9.419-8.785,8.785,9.419Zm-7.385-9.371,7.434,7.97,7.97-7.434-7.434-7.97Z" transform="translate(-211.922 -351.498)"/><rect class="a" width="559.7" height="1.305" transform="translate(14.14 377.555)"/><path class="a" d="M612.251,246.6v42.854a1.5,1.5,0,0,1-1.494,1.494h-1.063v223.24A23.294,23.294,0,0,1,586.4,537.479H446.91a23.288,23.288,0,0,1-23.286-23.291V298.776h-.77a1.055,1.055,0,0,1-1.057-1.05V273.336a1.057,1.057,0,0,1,1.057-1.057h.77v-9.187h-.776a1.107,1.107,0,0,1-1.1-1.109V237.927a1.105,1.105,0,0,1,1.1-1.1h.776v-12.54h-.789a.977.977,0,0,1-.979-.979V210.178a.983.983,0,0,1,.979-.985h.789V182.611a23.287,23.287,0,0,1,23.286-23.286H586.4a23.293,23.293,0,0,1,23.293,23.286V245.1h1.063A1.5,1.5,0,0,1,612.251,246.6Z" transform="translate(-251.13 -159.325)"/><rect class="b" width="25.983" height="5.276" rx="2.542" transform="translate(247.922 11.945)"/><circle class="b" cx="2.993" cy="2.993" r="2.993" transform="translate(277.833 11.59)"/><path class="c" d="M605.843,194.2V523.1a14.779,14.779,0,0,1-14.778,14.772H457.538a14.736,14.736,0,0,1-6.825-1.664,13.813,13.813,0,0,1-1.435-.848,14.79,14.79,0,0,1-6.518-12.26V194.2a14.778,14.778,0,0,1,14.779-14.778h19.984v2.564a12.168,12.168,0,0,0,12.168,12.168H557.6a12.168,12.168,0,0,0,12.168-12.168v-2.564h21.3A14.773,14.773,0,0,1,605.843,194.2Z" transform="translate(-258.433 -166.31)"/><path class="d" d="M605.843,617.362v47.082a14.778,14.778,0,0,1-14.778,14.772H457.538a14.736,14.736,0,0,1-6.825-1.664,13.813,13.813,0,0,1-1.435-.848,14.79,14.79,0,0,1-6.518-12.26V617.381a121.991,121.991,0,0,1,163.083-.02Z" transform="translate(-258.433 -307.651)"/><path class="d" d="M602.139,700.086a14.622,14.622,0,0,1-6.838,1.677H461.775a14.736,14.736,0,0,1-6.825-1.664,79.705,79.705,0,0,1,147.192-.007Z" transform="translate(-262.67 -330.199)"/><path class="d" d="M588.558,711.622a8.848,8.848,0,0,1-4.138,1.015h-80.8a8.917,8.917,0,0,1-4.13-1.007,48.232,48.232,0,0,1,89.069,0Z" transform="translate(-278.149 -340.945)"/><path class="e" d="M558.109,362.46c-13.394,0-28.094-2.551-39.569-11.157-15.977-11.983-35.661-11.343-49.361-8.7a107.566,107.566,0,0,0-26.277,8.753l-.6-1.157a108.934,108.934,0,0,1,26.6-8.87c13.969-2.7,34.056-3.35,50.426,8.927,30.665,23,85.576,2.343,86.126,2.132l.468,1.218a158.129,158.129,0,0,1-31.779,7.736A121.489,121.489,0,0,1,558.109,362.46Z" transform="translate(-258.272 -222.017)"/><path class="d" d="M442.75,354.628s45.02-10.9,76.338,4.026,86.777-.111,86.777-.111" transform="translate(-258.43 -225.865)"/><path class="d" d="M485.095,370.521a85.77,85.77,0,0,1-16.2-1.617,108.933,108.933,0,0,1-26.6-8.87l.6-1.157a107.566,107.566,0,0,0,26.278,8.753c13.7,2.647,33.384,3.287,49.361-8.7,16.355-12.266,39.263-12.232,55.6-10.043a158.123,158.123,0,0,1,31.779,7.736l-.468,1.218c-.551-.211-55.46-20.868-86.126,2.132C508.588,368.027,496.253,370.521,485.095,370.521Z" transform="translate(-258.272 -224.818)"/><path class="d" d="M485.345,364.916c-22.6,0-42.665-8.107-42.966-8.231l.5-1.207c.447.184,45.078,18.2,75.751.042,31.2-18.478,86.716-1.984,87.273-1.815l-.378,1.249c-.551-.167-55.52-16.5-86.23,1.689C508.811,362.849,496.755,364.916,485.345,364.916Z" transform="translate(-258.301 -224.468)"/><path class="d" d="M442.76,355.765s45.013,14.93,76.332,0,86.751-1.411,86.751-1.411" transform="translate(-258.433 -225.155)"/><path class="f" d="M710.519,420.725v19.021s1.522,21.3,9.891,31.955c0,0,13.7,19.4,15.6,15.217l-2.343-13.777-7.929-7.527-4.185-23.586-1.141-21.3Z" transform="translate(-351.49 -250.171)"/><path class="f" d="M673.045,524.941v14.076L661.633,543.2V526.843Z" transform="translate(-229.943 -182.437)"/><path class="f" d="M640.721,522.609l7.608,17.119-10.651,4.565L635.4,527.555Z" transform="translate(-220.824 -181.627)"/><path class="g" d="M801.337,475.17s15.217,137.332,9.51,137.712-16.739,7.608-16.739,2.663-8.75-69.236-8.75-69.236l-8.369-33.1v45.651l8.75,51.737s-8.369,11.032-14.456,4.565l-12.934-50.6s-17.119-76.846-16.358-82.932C741.991,481.637,781.175,448.16,801.337,475.17Z" transform="translate(-362.419 -265.433)"/><path class="g" d="M825.257,705.039s3.043-6.467,9.891-2.283l5.706,6.848s14.712,12.184,4.273,14.793c-10.76,2.69-17.207-.172-17.207-.172a8.319,8.319,0,0,0-3.424-1.141c-1.522,0-4.945-2.663-4.945-3.424s1.141-14.241,1.141-14.241a2.4,2.4,0,0,1,2.663.38C824.5,706.94,825.257,705.039,825.257,705.039Z" transform="translate(-389.382 -347.698)"/><path class="g" d="M789.641,702.269s7.228-5.706,10.652.761c0,0,2.156.761,2.409,0s2.156-1.141,2.156,3.043,2.066,14.622.164,15-3.8,1.522-3.424,3.043-2.066,1.736-10.815,1.356-9.13-3.8-9.13-3.8,0-4.945,2.283-7.608S789.641,702.269,789.641,702.269Z" transform="translate(-376.211 -347.211)"/><path class="f" d="M760.574,321.605s-1.9,14.076,10.271,19.021-27.01,21.3-30.814,11.793.761-12.554.761-12.554,3.8-3.8.38-14.076Z" transform="translate(-361.22 -215.723)"/><circle class="f" cx="16.739" cy="16.739" r="16.739" transform="translate(370.442 82.295)"/><path class="h" d="M765.771,357.755s-11.413,6.087-22.445,1.522-10.652,15.217-10.652,15.217l5.706,14.836,39.564-3.8L775.282,362.7Z" transform="translate(-359.189 -228.287)"/><path class="a" d="M751.591,337.8a13.81,13.81,0,0,1,9.474,7.31l18.26,5.706,4.565,6.467-5.326,46.792s9.891,9.511,9.891,14.836,12.173,23.586,6.087,21.3-17.119-10.271-17.119-10.271-27.771,1.141-36.521,8.75-12.173,5.326-12.173,5.326-9.13-39.564-9.511-45.651-11.032-42.607-11.032-42.607l19.021-10.652,4.845-5.5,13.415,21.475,12.173-14.836S751.627,341.526,751.591,337.8Z" transform="translate(-350.679 -221.353)"/><path class="f" d="M826.882,412.562l2.283,12.174s10.271,38.042,8.75,50.976c0,0,1.141,28.912-5.326,25.488s-3.043-24.347-3.043-24.347l-9.13-37.662-4.945-22.064Z" transform="translate(-387.964 -247.334)"/><path class="a" d="M816.561,364.168l3.8,2.283S834.821,396.5,831.4,398.786s-18.26,7.228-18.26,7.228Z" transform="translate(-387.153 -230.516)"/><path class="a" d="M556.054,205.909l-8.94-.191-2.092,3.614,2.663,36.9,13.7,3.043Z" transform="translate(-189.416 -71.495)"/><path class="g" d="M755.369,284.227l3.017-1.1s-6.308-6.308-15.085-5.76l2.469-2.469s-6.034-2.194-11.52,3.566c-2.884,3.028-6.22,6.587-8.3,10.6h-3.231l1.349,2.7-4.72,2.7,4.844-.484a13.611,13.611,0,0,0,.458,6.985l1.1,3.017s4.388-8.777,4.388-9.874v2.743s3.017-2.468,3.017-4.114l1.646,1.92.823-3.017,10.148,3.017-1.646-2.468,6.308.823-2.469-3.017s7.131,3.566,7.406,6.583a25.453,25.453,0,0,0,2.157,6.95l2.283-2.663S763.323,288.342,755.369,284.227Z" transform="translate(-354.558 -199.35)"/><ellipse class="f" cx="1.331" cy="3.424" rx="1.331" ry="3.424" transform="translate(399.925 95.801)"/><path class="a" d="M199.187,688.782c8.109,15.039,25.319,21.494,25.319,21.494s4.063-17.927-4.046-32.965-25.319-21.494-25.319-21.494S191.078,673.743,199.187,688.782Z" transform="translate(-172.022 -331.875)"/><path class="c" d="M192.989,695.474c14.64,8.808,20.279,26.3,20.279,26.3s-18.1,3.215-32.738-5.594-20.279-26.3-20.279-26.3S178.348,686.665,192.989,695.474Z" transform="translate(-160.25 -343.514)"/><path class="d" d="M442.76,351.114s45.013-23.489,76.332,0,86.751,2.219,86.751,2.219" transform="translate(-258.433 -222.351)"/><circle class="e" cx="7.177" cy="7.177" r="7.177" transform="translate(258.864 353.422)"/></g></svg>